# xmcd
#
# Track frame offsets: 
#        150
#        40263
#        60127
#        87093
#        108983
#        128699
#        150259
#        187789
#        215094
#        230374
#        249201
#
# Disc length: 3859 seconds
#
# Revision: 0
# Processed by: cddbd v1.5.2PL0 Copyright (c) Steve Scherf et al.
# Submitted via: ExactAudioCopy v0.95a5
#
DISCID=780f110b
DTITLE=林石城 - 民乐集萃-霸王卸甲
DYEAR=1900
DGENRE=Folk
TTITLE0=浔阳夜月
TTITLE1=大浪淘沙
TTITLE2=寒雅戏水
TTITLE3=昭君出塞
TTITLE4=陈杏元和番
TTITLE5=秋思
TTITLE6=青莲乐府
TTITLE7=虚籁
TTITLE8=飞花点翠
TTITLE9=出水莲
TTITLE10=霸王卸甲
EXTD=
EXTT0=
EXTT1=
EXTT2=
EXTT3=
EXTT4=
EXTT5=
EXTT6=
EXTT7=
EXTT8=
EXTT9=
EXTT10=
PLAYORDER=
